<svg width="220" height="220" viewBox="0 0 220 220" fill="none" xmlns="http://www.w3.org/2000/svg">
<circle cx="110" cy="110" r="108.5" fill="#D9D9D9"/>
<circle cx="110" cy="110" r="108.5" fill="url(#paint0_radial_20_472)" fill-opacity="0.2"/>
<circle cx="110" cy="110" r="108.5" stroke="white" stroke-width="3"/>
<path d="M53 55.9375V167.062H170V55.9375H53ZM116.671 142.605C116.671 153.42 109.985 158.356 100.244 158.356C91.4429 158.356 86.3502 154.04 83.7386 148.806L92.6964 143.672C94.4201 146.574 95.9871 149.029 99.7739 149.029C103.378 149.029 105.676 147.69 105.676 142.456V106.961H116.671V142.605ZM142.683 158.356C132.471 158.356 125.864 153.742 122.652 147.69L131.609 142.779C133.96 146.425 137.042 149.129 142.448 149.129C146.992 149.129 149.917 146.971 149.917 143.969C149.917 140.397 146.939 139.132 141.899 137.024L139.157 135.908C131.218 132.708 125.968 128.665 125.968 120.157C125.968 112.319 132.262 106.365 142.056 106.365C149.055 106.365 154.069 108.672 157.673 114.725L149.107 119.934C147.227 116.734 145.19 115.469 142.03 115.469C138.817 115.469 136.78 117.404 136.78 119.934C136.78 123.059 138.817 124.324 143.544 126.284L146.287 127.4C155.636 131.195 160.885 135.089 160.885 143.821C160.885 153.197 153.103 158.356 142.683 158.356Z" fill="#FFFB00"/>
<defs>
<radialGradient id="paint0_radial_20_472" cx="0" cy="0" r="1" gradientUnits="userSpaceOnUse" gradientTransform="translate(192 65.5) rotate(-154.026) scale(130.146)">
<stop stop-color="white"/>
<stop offset="1"/>
</radialGradient>
</defs>
</svg>
