<svg width="75" height="85" viewBox="0 0 75 85" fill="none" xmlns="http://www.w3.org/2000/svg">
<path d="M69.6429 5.26147H5.3404C2.39397 5.26147 0 7.64558 0 10.5723V73.6114C0 76.5381 2.39397 78.9222 5.3404 78.9222H69.6429C72.5893 78.9222 75 76.5381 75 73.6114V10.5723C75 7.64558 72.5893 5.26147 69.6429 5.26147ZM22.6674 68.3992H11.5513V33.246H22.6842V68.3992H22.6674ZM17.1094 28.4449C13.5435 28.4449 10.6641 25.6004 10.6641 22.1147C10.6641 18.6289 13.5435 15.7844 17.1094 15.7844C20.6585 15.7844 23.5547 18.6289 23.5547 22.1147C23.5547 25.6168 20.6752 28.4449 17.1094 28.4449ZM64.3359 68.3992H53.2199V51.2994C53.2199 47.2218 53.1362 41.9767 47.4442 41.9767C41.6518 41.9767 40.7645 46.4161 40.7645 51.0035V68.3992H29.6484V33.246H40.3125V38.0471H40.4632C41.9531 35.2848 45.5859 32.3745 50.9933 32.3745C62.2433 32.3745 64.3359 39.6584 64.3359 49.1291V68.3992Z" fill="white"/>
</svg>
