<svg width="1440" height="1609" viewBox="0 0 1440 1609" fill="none" xmlns="http://www.w3.org/2000/svg">
<path d="M444.472 286.524C444.29 287.975 443.961 287.567 442.897 288.099" stroke="white" stroke-linecap="round"/>
<path d="M214.65 521.068V519.494" stroke="white" stroke-linecap="round"/>
<path d="M1280.33 541.532V539.958" stroke="white" stroke-linecap="round"/>
<path d="M1344.87 277.08H1343.29" stroke="white" stroke-linecap="round"/>
<path d="M327.149 601.139H327.418" stroke="white" stroke-linecap="round"/>
<path d="M138.496 643.43V643.528" stroke="white" stroke-linecap="round"/>
<path d="M110.487 502.407C110.487 502.45 110.497 502.576 110.534 502.595" stroke="white" stroke-linecap="round"/>
<path d="M208.451 340.382C208.458 340.438 208.498 340.429 208.545 340.429" stroke="white" stroke-linecap="round"/>
<path d="M1186.55 650.554C1186.55 650.552 1186.52 650.549 1186.52 650.545C1186.5 650.511 1186.52 650.383 1186.52 650.348" stroke="white" stroke-linecap="round"/>
<path d="M1138.43 279.416C1138.43 279.405 1138.43 279.408 1138.42 279.404" stroke="white" stroke-linecap="round"/>
<path d="M754.465 281.491V281.545" stroke="white" stroke-linecap="round"/>
<path d="M588.472 1244.44C588.29 1245.9 587.961 1245.49 586.897 1246.02" stroke="white" stroke-linecap="round"/>
<path d="M358.65 1478.99V1477.41" stroke="white" stroke-linecap="round"/>
<path d="M1424.33 1499.45V1497.88" stroke="white" stroke-linecap="round"/>
<path d="M471.149 1559.06H471.418" stroke="white" stroke-linecap="round"/>
<path d="M282.496 1601.35V1601.45" stroke="white" stroke-linecap="round"/>
<path d="M254.487 1460.33C254.487 1460.37 254.497 1460.5 254.534 1460.52" stroke="white" stroke-linecap="round"/>
<path d="M352.451 1298.3C352.458 1298.36 352.498 1298.35 352.545 1298.35" stroke="white" stroke-linecap="round"/>
<path d="M1330.55 1608.47C1330.55 1608.47 1330.52 1608.47 1330.52 1608.47C1330.5 1608.43 1330.52 1608.3 1330.52 1608.27" stroke="white" stroke-linecap="round"/>
<path d="M1282.43 1237.34C1282.43 1237.33 1282.43 1237.33 1282.42 1237.32" stroke="white" stroke-linecap="round"/>
<path d="M898.465 1239.41V1239.47" stroke="white" stroke-linecap="round"/>
<path d="M930.505 550.495V550.511" stroke="white" stroke-linecap="round"/>
<path d="M642.453 460.507C642.454 460.513 642.455 460.511 642.459 460.513" stroke="white" stroke-linecap="round"/>
<path d="M325.528 165.401C325.521 165.401 325.518 165.403 325.512 165.407" stroke="white" stroke-linecap="round"/>
<path d="M425.662 340.737H425.93" stroke="white" stroke-linecap="round"/>
<path d="M237.008 383.029V383.127" stroke="white" stroke-linecap="round"/>
<path d="M209 242.005C209 242.049 209.009 242.175 209.047 242.194" stroke="white" stroke-linecap="round"/>
<path d="M306.963 79.981C306.97 80.0366 307.011 80.028 307.057 80.028" stroke="white" stroke-linecap="round"/>
<path d="M1285.07 390.153C1285.06 390.151 1285.04 390.148 1285.03 390.144C1285.01 390.11 1285.03 389.982 1285.03 389.946" stroke="white" stroke-linecap="round"/>
<path d="M1236.95 19.0149C1236.95 19.0035 1236.94 19.0067 1236.93 19.0026" stroke="white" stroke-linecap="round"/>
<path d="M852.977 21.0902V21.1441" stroke="white" stroke-linecap="round"/>
<path d="M1029.02 290.094V290.11" stroke="white" stroke-linecap="round"/>
<path d="M740.965 200.106C740.966 200.111 740.967 200.11 740.972 200.112" stroke="white" stroke-linecap="round"/>
</svg>
