<svg width="220" height="220" viewBox="0 0 220 220" fill="none" xmlns="http://www.w3.org/2000/svg">
<circle cx="110" cy="110" r="108.5" fill="#DADADA"/>
<circle cx="110" cy="110" r="108.5" fill="url(#paint0_radial_20_477)" fill-opacity="0.2"/>
<circle cx="110" cy="110" r="108.5" stroke="Black" stroke-width="3"/>
<path d="M59 68.8211C59 54.5629 71.1711 43 86.1792 43H132.821C147.829 43 160 54.5629 160 68.8211C160 77.8504 155.12 85.8016 147.715 90.4105C155.12 95.0195 160 102.971 160 112C160 126.258 147.829 137.821 132.821 137.821H132.225C125.189 137.821 118.777 135.287 113.954 131.11V154.909C113.954 169.356 101.471 181 86.3211 181C71.3413 181 59 169.464 59 155.179C59 146.15 63.8798 138.198 71.2562 133.589C63.8798 128.98 59 121.029 59 112C59 102.971 63.8798 95.0195 71.2562 90.4105C63.8798 85.8016 59 77.8504 59 68.8211ZM105.046 94.6422H86.1792C76.0792 94.6422 67.9084 102.405 67.9084 112C67.9084 121.541 76.0225 129.304 86.0657 129.358C86.0941 129.358 86.1508 129.358 86.1792 129.358H105.046V94.6422ZM113.954 112C113.954 121.595 122.125 129.358 132.225 129.358H132.821C142.892 129.358 151.092 121.595 151.092 112C151.092 102.405 142.892 94.6422 132.821 94.6422H132.225C122.125 94.6422 113.954 102.405 113.954 112ZM86.1792 137.821C86.1508 137.821 86.0941 137.821 86.0657 137.821C76.0225 137.875 67.9084 145.638 67.9084 155.179C67.9084 164.747 76.1927 172.537 86.3211 172.537C96.6197 172.537 105.046 164.613 105.046 154.909V137.821H86.1792ZM86.1792 51.4633C76.0792 51.4633 67.9084 59.2258 67.9084 68.8211C67.9084 78.4164 76.0792 86.1789 86.1792 86.1789H105.046V51.4633H86.1792ZM113.954 86.1789H132.821C142.892 86.1789 151.092 78.4164 151.092 68.8211C151.092 59.2258 142.892 51.4633 132.821 51.4633H113.954V86.1789Z" fill="black"/>
<defs>
<radialGradient id="paint0_radial_20_477" cx="0" cy="0" r="1" gradientUnits="userSpaceOnUse" gradientTransform="translate(192 65.5) rotate(-154.026) scale(130.146)">
<stop stop-color="white"/>
<stop offset="1"/>
</radialGradient>
</defs>
</svg>
