<svg width="75" height="78" viewBox="0 0 75 78" fill="none" xmlns="http://www.w3.org/2000/svg">
<path d="M25.0857 60.4347C25.0857 60.7389 24.7379 60.9822 24.2994 60.9822C23.8004 61.0278 23.4526 60.7845 23.4526 60.4347C23.4526 60.1306 23.8004 59.8872 24.2389 59.8872C24.6925 59.8416 25.0857 60.0849 25.0857 60.4347ZM20.3831 59.7504C20.2772 60.0545 20.5796 60.4043 21.0333 60.4955C21.4264 60.6476 21.88 60.4955 21.9708 60.1914C22.0615 59.8872 21.7742 59.5375 21.3206 59.4006C20.9274 59.2941 20.4889 59.4462 20.3831 59.7504ZM27.0665 59.4918C26.628 59.5983 26.3256 59.8872 26.371 60.237C26.4163 60.5412 26.8095 60.7389 27.2631 60.6324C27.7016 60.526 28.004 60.237 27.9587 59.9329C27.9133 59.6439 27.505 59.4462 27.0665 59.4918ZM37.0161 1.21655C16.0433 1.21655 0 17.2301 0 38.3229C0 55.1881 10.5544 69.6201 25.63 74.6994C27.5655 75.0492 28.246 73.8478 28.246 72.8593C28.246 71.9164 28.2006 66.7154 28.2006 63.5218C28.2006 63.5218 17.6159 65.803 15.3931 58.99C15.3931 58.99 13.6694 54.5646 11.1895 53.424C11.1895 53.424 7.72681 51.0364 11.4315 51.0821C11.4315 51.0821 15.1966 51.3862 17.2681 55.0056C20.5796 60.8757 26.129 59.1877 28.2913 58.184C28.6391 55.7508 29.622 54.0628 30.7107 53.0591C22.2581 52.1162 13.7298 50.8844 13.7298 36.2547C13.7298 32.0726 14.879 29.974 17.2984 27.2975C16.9052 26.309 15.62 22.2334 17.6915 16.9716C20.8518 15.9831 28.125 21.0776 28.125 21.0776C31.1492 20.226 34.4002 19.785 37.621 19.785C40.8417 19.785 44.0927 20.226 47.1169 21.0776C47.1169 21.0776 54.3901 15.9679 57.5504 16.9716C59.622 22.2486 58.3367 26.309 57.9436 27.2975C60.3629 29.9892 61.8448 32.0879 61.8448 36.2547C61.8448 50.93 52.9385 52.101 44.4859 53.0591C45.877 54.2604 47.0565 56.5416 47.0565 60.1154C47.0565 65.2403 47.0111 71.5818 47.0111 72.8289C47.0111 73.8173 47.7067 75.0187 49.627 74.669C64.748 69.6201 75 55.1881 75 38.3229C75 17.2301 57.9889 1.21655 37.0161 1.21655ZM14.6976 53.6674C14.501 53.8194 14.5464 54.1692 14.8034 54.4581C15.0454 54.7015 15.3931 54.8079 15.5897 54.6102C15.7863 54.4581 15.7409 54.1084 15.4839 53.8194C15.2419 53.5761 14.8942 53.4697 14.6976 53.6674ZM13.0645 52.4355C12.9587 52.6332 13.1099 52.8766 13.4123 53.0286C13.6542 53.1807 13.9567 53.1351 14.0625 52.9222C14.1683 52.7245 14.0171 52.4812 13.7147 52.3291C13.4123 52.2379 13.1704 52.2835 13.0645 52.4355ZM17.9637 57.8494C17.7218 58.0471 17.8125 58.5034 18.1603 58.7923C18.5081 59.1421 18.9466 59.1877 19.1431 58.9444C19.3397 58.7467 19.249 58.2904 18.9466 58.0015C18.6139 57.6517 18.1603 57.6061 17.9637 57.8494ZM16.2399 55.6139C15.998 55.766 15.998 56.1614 16.2399 56.5112C16.4819 56.8609 16.8901 57.013 17.0867 56.8609C17.3286 56.6632 17.3286 56.2678 17.0867 55.9181C16.875 55.5683 16.4819 55.4162 16.2399 55.6139Z" fill="white"/>
</svg>
