<svg width="75" height="75" viewBox="0 0 75 75" fill="none" xmlns="http://www.w3.org/2000/svg">
<path d="M7.5 75C5.4375 75 3.6725 74.0828 2.205 72.2484C0.7375 70.4141 0.0025 68.2062 0 65.625V9.375C0 6.79687 0.735 4.59062 2.205 2.75625C3.675 0.921874 5.44 0.003125 7.5 0H67.5C69.5625 0 71.3287 0.918749 72.7987 2.75625C74.2687 4.59375 75.0025 6.8 75 9.375V65.625C75 68.2031 74.2662 70.4109 72.7987 72.2484C71.3312 74.0859 69.565 75.0031 67.5 75H7.5ZM37.5 42.1875L7.5 18.75V65.625H67.5V18.75L37.5 42.1875ZM37.5 32.8125L67.5 9.375H7.5L37.5 32.8125ZM7.5 18.75V9.375V65.625V18.75Z" fill="white"/>
</svg>
