<svg width="220" height="220" viewBox="0 0 220 220" fill="none" xmlns="http://www.w3.org/2000/svg">
<circle cx="110" cy="110" r="108.5" fill="#DADADA"/>
<circle cx="110" cy="110" r="108.5" fill="url(#paint0_radial_29_908)" fill-opacity="0.2"/>
<circle cx="110" cy="110" r="108.5" stroke="Blue" stroke-width="3"/>
<path d="M108.69 145.785L108.5 145.707L108.31 145.785C105.391 146.987 102.528 148.069 99.693 148.961L99.1253 149.14L99.3993 149.668C101.494 153.707 103.461 155.886 105.068 157.056C106.685 158.234 107.919 158.375 108.5 158.375C109.082 158.375 110.309 158.233 111.923 157.056C113.526 155.886 115.493 153.708 117.6 149.669L117.873 149.146L117.312 148.963C114.496 148.045 111.606 146.986 108.69 145.785ZM155.232 112.196L154.999 112.5L155.232 112.804C163.373 123.428 166.031 133.995 161.051 142.497L161.051 142.498C156.19 150.821 145.959 153.896 132.963 152.462L132.599 152.422L132.451 152.757C127.029 164.989 118.828 172.5 108.5 172.5C98.172 172.5 89.9709 164.989 84.5493 152.757L84.4011 152.422L84.0374 152.462C71.04 153.896 60.8106 150.845 55.9492 142.498L55.9487 142.497C50.9694 133.995 53.6273 123.428 61.768 112.804L62.001 112.5L61.768 112.196C53.6273 101.572 50.9694 91.0053 55.9487 82.5027L55.9489 82.5022C60.8105 74.1786 71.0409 71.1043 84.0374 72.5376L84.4011 72.5777L84.5493 72.2432C89.9709 60.0106 98.172 52.5 108.5 52.5C118.828 52.5 127.029 60.0106 132.451 72.2432L132.599 72.5777L132.963 72.5376C145.96 71.1042 156.189 74.1555 161.051 82.5017L161.051 82.5027C166.031 91.0053 163.373 101.572 155.232 112.196ZM139.004 128.031L138.837 128.158L138.811 128.366C138.391 131.709 137.848 134.955 137.157 138.057L137.028 138.64L137.625 138.665C141.615 138.832 144.092 138.315 145.642 137.63C147.207 136.938 147.806 136.085 148.052 135.647C148.389 135.06 148.846 133.895 148.609 131.96C148.374 130.035 147.454 127.368 145.083 123.758L144.767 123.276L144.334 123.658C142.657 125.139 140.88 126.596 139.004 128.031ZM137.626 86.3588L137.026 86.3821L137.158 86.9678C137.848 90.0454 138.391 93.2906 138.811 96.657L138.837 96.865L139.004 96.9923C140.88 98.4272 142.657 99.885 144.334 101.366L144.767 101.747L145.083 101.265C149.829 94.0399 148.751 90.5656 148.049 89.3709C147.804 88.9491 147.207 88.1028 145.642 87.4114C144.093 86.7266 141.617 86.2033 137.626 86.3588ZM117.307 76.0388L117.876 75.8597L117.6 75.3306C115.493 71.2923 113.526 69.1137 111.923 67.9441C110.309 66.7665 109.082 66.625 108.5 66.625C107.918 66.625 106.691 66.7665 105.077 67.9441C103.474 69.1137 101.507 71.2923 99.3999 75.3306L99.1267 75.8543L99.6882 76.0373C102.504 76.9551 105.394 78.0143 108.31 79.2147L108.5 79.2931L108.69 79.2147C111.609 78.0128 114.472 76.9313 117.307 76.0388ZM78.0211 96.9687L78.1876 96.8414L78.2135 96.6334C78.6335 93.2675 79.1767 90.0456 79.8674 86.9434L79.9972 86.3602L79.4003 86.3352C75.4096 86.1678 72.9328 86.6848 71.3823 87.37C69.8173 88.0616 69.2185 88.9151 68.9728 89.3533C68.6362 89.9401 68.1788 91.1053 68.4154 93.04C68.6508 94.965 69.5703 97.6316 71.9417 101.242L72.2582 101.724L72.6905 101.342C74.3679 99.8613 76.1448 98.4035 78.0211 96.9687ZM72.6657 123.658L72.2323 123.275L71.9162 123.759C67.1936 130.987 68.2512 134.434 68.9495 135.649L68.9503 135.651C69.1942 136.072 69.7904 136.92 71.3575 137.612C72.9071 138.297 75.3832 138.82 79.374 138.665L79.9738 138.641L79.8424 138.056C79.1519 134.978 78.6088 131.733 78.1887 128.367L78.1628 128.159L77.9963 128.031C76.12 126.596 74.3431 125.139 72.6657 123.658ZM128.844 112.5C128.844 107.345 126.694 102.407 122.877 98.7693C119.06 95.1327 113.888 93.0938 108.5 93.0938C103.112 93.0938 97.9403 95.1327 94.1235 98.7693C90.3058 102.407 88.1563 107.345 88.1563 112.5C88.1563 117.655 90.3058 122.593 94.1235 126.231C97.9403 129.867 103.112 131.906 108.5 131.906C113.888 131.906 119.06 129.867 122.877 126.231C126.694 122.593 128.844 117.655 128.844 112.5ZM108.5 105.438C110.48 105.438 112.375 106.187 113.768 107.515C115.16 108.841 115.938 110.635 115.938 112.5C115.938 114.365 115.16 116.159 113.768 117.485C112.375 118.813 110.48 119.562 108.5 119.562C106.52 119.562 104.625 118.813 103.232 117.485C101.84 116.159 101.063 114.365 101.063 112.5C101.063 110.635 101.84 108.841 103.232 107.515C104.625 106.187 106.52 105.438 108.5 105.438Z" fill="#41B0DC" stroke="black"/>
<defs>
<radialGradient id="paint0_radial_29_908" cx="0" cy="0" r="1" gradientUnits="userSpaceOnUse" gradientTransform="translate(192 65.5) rotate(-154.026) scale(130.146)">
<stop stop-color="white"/>
<stop offset="1"/>
</radialGradient>
</defs>
</svg>
